<mxfile host="app.diagrams.net" modified="2024-03-26T20:16:07.358Z" agent="Mozilla/5.0 (Windows NT 10.0; Win64; x64) AppleWebKit/537.36 (KHTML, like Gecko) Chrome/123.0.0.0 Safari/537.36" etag="1wwq4IzAjorY5SWULje3" version="24.1.0" type="device">
  <diagram name="Pagina-1" id="3feNih483y1mHezoYXug">
    <mxGraphModel dx="228" dy="118" grid="1" gridSize="10" guides="1" tooltips="1" connect="1" arrows="1" fold="1" page="1" pageScale="1" pageWidth="827" pageHeight="1169" math="0" shadow="0">
      <root>
        <mxCell id="0" />
        <mxCell id="1" parent="0" />
        <mxCell id="3LS_brL-AoxvbDb2mSr8-1" value="Tank" style="whiteSpace=wrap;html=1;aspect=fixed;" vertex="1" parent="1">
          <mxGeometry x="330" y="330" width="110" height="110" as="geometry" />
        </mxCell>
        <mxCell id="3LS_brL-AoxvbDb2mSr8-4" value="cooling&lt;div&gt;&lt;span style=&quot;background-color: initial;&quot;&gt;pump&lt;/span&gt;&lt;/div&gt;" style="shape=tapeData;whiteSpace=wrap;html=1;perimeter=ellipsePerimeter;" vertex="1" parent="1">
          <mxGeometry x="550" y="345" width="80" height="80" as="geometry" />
        </mxCell>
        <mxCell id="3LS_brL-AoxvbDb2mSr8-6" value="Arduino" style="shape=hexagon;perimeter=hexagonPerimeter2;whiteSpace=wrap;html=1;fixedSize=1;" vertex="1" parent="1">
          <mxGeometry x="325" y="170" width="120" height="80" as="geometry" />
        </mxCell>
        <mxCell id="3LS_brL-AoxvbDb2mSr8-7" value="" style="endArrow=classic;html=1;rounded=0;" edge="1" parent="1">
          <mxGeometry width="50" height="50" relative="1" as="geometry">
            <mxPoint x="385" y="325" as="sourcePoint" />
            <mxPoint x="385" y="255" as="targetPoint" />
          </mxGeometry>
        </mxCell>
        <mxCell id="3LS_brL-AoxvbDb2mSr8-8" value="temperature &amp;lt; target" style="text;html=1;align=center;verticalAlign=middle;resizable=0;points=[];autosize=1;strokeColor=none;fillColor=none;" vertex="1" parent="1">
          <mxGeometry x="256" y="278" width="130" height="30" as="geometry" />
        </mxCell>
        <mxCell id="3LS_brL-AoxvbDb2mSr8-9" value="server" style="shape=cylinder3;whiteSpace=wrap;html=1;boundedLbl=1;backgroundOutline=1;size=15;" vertex="1" parent="1">
          <mxGeometry x="206" y="180" width="50" height="60" as="geometry" />
        </mxCell>
        <mxCell id="3LS_brL-AoxvbDb2mSr8-10" value="" style="endArrow=classic;html=1;rounded=0;" edge="1" parent="1">
          <mxGeometry width="50" height="50" relative="1" as="geometry">
            <mxPoint x="321" y="210" as="sourcePoint" />
            <mxPoint x="259" y="210" as="targetPoint" />
          </mxGeometry>
        </mxCell>
        <mxCell id="3LS_brL-AoxvbDb2mSr8-11" value="to db" style="text;html=1;align=center;verticalAlign=middle;resizable=0;points=[];autosize=1;strokeColor=none;fillColor=none;" vertex="1" parent="1">
          <mxGeometry x="270" y="184" width="50" height="30" as="geometry" />
        </mxCell>
        <mxCell id="3LS_brL-AoxvbDb2mSr8-12" value="" style="endArrow=classic;html=1;rounded=0;" edge="1" parent="1">
          <mxGeometry width="50" height="50" relative="1" as="geometry">
            <mxPoint x="450" y="210" as="sourcePoint" />
            <mxPoint x="495" y="360" as="targetPoint" />
            <Array as="points">
              <mxPoint x="495" y="210" />
            </Array>
          </mxGeometry>
        </mxCell>
        <mxCell id="3LS_brL-AoxvbDb2mSr8-13" value="sets&lt;div&gt;&lt;span style=&quot;background-color: initial;&quot;&gt;valve&lt;/span&gt;&lt;/div&gt;&lt;div&gt;&lt;span style=&quot;background-color: initial;&quot;&gt;close&lt;/span&gt;&lt;/div&gt;" style="text;html=1;align=center;verticalAlign=middle;resizable=0;points=[];autosize=1;strokeColor=none;fillColor=none;" vertex="1" parent="1">
          <mxGeometry x="498" y="248" width="50" height="60" as="geometry" />
        </mxCell>
        <mxCell id="3LS_brL-AoxvbDb2mSr8-15" value="" style="shape=flexArrow;endArrow=classic;html=1;rounded=0;endWidth=12.876712328767123;endSize=6.8410958904109584;" edge="1" parent="1">
          <mxGeometry width="50" height="50" relative="1" as="geometry">
            <mxPoint x="539" y="370" as="sourcePoint" />
            <mxPoint x="539" y="410" as="targetPoint" />
            <Array as="points">
              <mxPoint x="459" y="370" />
              <mxPoint x="459" y="410" />
            </Array>
          </mxGeometry>
        </mxCell>
        <mxCell id="3LS_brL-AoxvbDb2mSr8-16" value="" style="endArrow=none;html=1;rounded=0;" edge="1" parent="1">
          <mxGeometry width="50" height="50" relative="1" as="geometry">
            <mxPoint x="485" y="360" as="sourcePoint" />
            <mxPoint x="505" y="380" as="targetPoint" />
          </mxGeometry>
        </mxCell>
        <mxCell id="3LS_brL-AoxvbDb2mSr8-17" value="" style="endArrow=none;html=1;rounded=0;" edge="1" parent="1">
          <mxGeometry width="50" height="50" relative="1" as="geometry">
            <mxPoint x="485" y="380" as="sourcePoint" />
            <mxPoint x="505" y="360" as="targetPoint" />
          </mxGeometry>
        </mxCell>
      </root>
    </mxGraphModel>
  </diagram>
</mxfile>
